<svg baseProfile="full" height="400" version="1.1" width="800" xmlns="http://www.w3.org/2000/svg" xmlns:ev="http://www.w3.org/2001/xml-events" xmlns:xlink="http://www.w3.org/1999/xlink"><defs /><rect fill="#000000" fill-opacity="0.0" height="400" rx="20" ry="20" width="800" x="0" y="0" /><text fill="#cdd6f4" fill-opacity="1" style="font-size: 20px; font-family: Arial" text-anchor="middle" x="400.0" y="30.0">Zhuang's Repo Traffic Stats</text><line stroke="#414868" stroke-opacity="1" x1="60" x2="750" y1="320" y2="320" /><line stroke="#414868" stroke-opacity="1" x1="60" x2="60" y1="60" y2="320" /><line opacity="0.5" stroke="#414868" stroke-dasharray="5,5" stroke-opacity="1" stroke-width="1" x1="60" x2="750" y1="320.0" y2="320.0" /><text fill="#cdd6f4" fill-opacity="1" style="font-size: 12px; font-family: Arial" text-anchor="end" x="50" y="325.0">0</text><line opacity="0.5" stroke="#414868" stroke-dasharray="5,5" stroke-opacity="1" stroke-width="1" x1="60" x2="750" y1="291.1111111111111" y2="291.1111111111111" /><text fill="#cdd6f4" fill-opacity="1" style="font-size: 12px; font-family: Arial" text-anchor="end" x="50" y="296.1111111111111">10</text><line opacity="0.5" stroke="#414868" stroke-dasharray="5,5" stroke-opacity="1" stroke-width="1" x1="60" x2="750" y1="262.22222222222223" y2="262.22222222222223" /><text fill="#cdd6f4" fill-opacity="1" style="font-size: 12px; font-family: Arial" text-anchor="end" x="50" y="267.22222222222223">20</text><line opacity="0.5" stroke="#414868" stroke-dasharray="5,5" stroke-opacity="1" stroke-width="1" x1="60" x2="750" y1="233.33333333333331" y2="233.33333333333331" /><text fill="#cdd6f4" fill-opacity="1" style="font-size: 12px; font-family: Arial" text-anchor="end" x="50" y="238.33333333333331">30</text><line opacity="0.5" stroke="#414868" stroke-dasharray="5,5" stroke-opacity="1" stroke-width="1" x1="60" x2="750" y1="204.44444444444446" y2="204.44444444444446" /><text fill="#cdd6f4" fill-opacity="1" style="font-size: 12px; font-family: Arial" text-anchor="end" x="50" y="209.44444444444446">40</text><line opacity="0.5" stroke="#414868" stroke-dasharray="5,5" stroke-opacity="1" stroke-width="1" x1="60" x2="750" y1="175.55555555555557" y2="175.55555555555557" /><text fill="#cdd6f4" fill-opacity="1" style="font-size: 12px; font-family: Arial" text-anchor="end" x="50" y="180.55555555555557">50</text><line opacity="0.5" stroke="#414868" stroke-dasharray="5,5" stroke-opacity="1" stroke-width="1" x1="60" x2="750" y1="146.66666666666666" y2="146.66666666666666" /><text fill="#cdd6f4" fill-opacity="1" style="font-size: 12px; font-family: Arial" text-anchor="end" x="50" y="151.66666666666666">60</text><line opacity="0.5" stroke="#414868" stroke-dasharray="5,5" stroke-opacity="1" stroke-width="1" x1="60" x2="750" y1="117.77777777777777" y2="117.77777777777777" /><text fill="#cdd6f4" fill-opacity="1" style="font-size: 12px; font-family: Arial" text-anchor="end" x="50" y="122.77777777777777">70</text><line opacity="0.5" stroke="#414868" stroke-dasharray="5,5" stroke-opacity="1" stroke-width="1" x1="60" x2="750" y1="88.88888888888889" y2="88.88888888888889" /><text fill="#cdd6f4" fill-opacity="1" style="font-size: 12px; font-family: Arial" text-anchor="end" x="50" y="93.88888888888889">80</text><line opacity="0.5" stroke="#414868" stroke-dasharray="5,5" stroke-opacity="1" stroke-width="1" x1="60" x2="750" y1="60.0" y2="60.0" /><text fill="#cdd6f4" fill-opacity="1" style="font-size: 12px; font-family: Arial" text-anchor="end" x="50" y="65.0">90</text><line opacity="0.5" stroke="#414868" stroke-dasharray="5,5" stroke-opacity="1" stroke-width="1" x1="60.0" x2="60.0" y1="60" y2="320" /><line opacity="0.5" stroke="#414868" stroke-dasharray="5,5" stroke-opacity="1" stroke-width="1" x1="113.07692307692308" x2="113.07692307692308" y1="60" y2="320" /><line opacity="0.5" stroke="#414868" stroke-dasharray="5,5" stroke-opacity="1" stroke-width="1" x1="166.15384615384616" x2="166.15384615384616" y1="60" y2="320" /><line opacity="0.5" stroke="#414868" stroke-dasharray="5,5" stroke-opacity="1" stroke-width="1" x1="219.23076923076923" x2="219.23076923076923" y1="60" y2="320" /><line opacity="0.5" stroke="#414868" stroke-dasharray="5,5" stroke-opacity="1" stroke-width="1" x1="272.3076923076923" x2="272.3076923076923" y1="60" y2="320" /><line opacity="0.5" stroke="#414868" stroke-dasharray="5,5" stroke-opacity="1" stroke-width="1" x1="325.3846153846154" x2="325.3846153846154" y1="60" y2="320" /><line opacity="0.5" stroke="#414868" stroke-dasharray="5,5" stroke-opacity="1" stroke-width="1" x1="378.46153846153845" x2="378.46153846153845" y1="60" y2="320" /><line opacity="0.5" stroke="#414868" stroke-dasharray="5,5" stroke-opacity="1" stroke-width="1" x1="431.53846153846155" x2="431.53846153846155" y1="60" y2="320" /><line opacity="0.5" stroke="#414868" stroke-dasharray="5,5" stroke-opacity="1" stroke-width="1" x1="484.61538461538464" x2="484.61538461538464" y1="60" y2="320" /><line opacity="0.5" stroke="#414868" stroke-dasharray="5,5" stroke-opacity="1" stroke-width="1" x1="537.6923076923077" x2="537.6923076923077" y1="60" y2="320" /><line opacity="0.5" stroke="#414868" stroke-dasharray="5,5" stroke-opacity="1" stroke-width="1" x1="590.7692307692308" x2="590.7692307692308" y1="60" y2="320" /><line opacity="0.5" stroke="#414868" stroke-dasharray="5,5" stroke-opacity="1" stroke-width="1" x1="643.8461538461539" x2="643.8461538461539" y1="60" y2="320" /><line opacity="0.5" stroke="#414868" stroke-dasharray="5,5" stroke-opacity="1" stroke-width="1" x1="696.9230769230769" x2="696.9230769230769" y1="60" y2="320" /><line opacity="0.5" stroke="#414868" stroke-dasharray="5,5" stroke-opacity="1" stroke-width="1" x1="750.0" x2="750.0" y1="60" y2="320" /><circle cx="60.0" cy="233.33333333333331" fill="#8aadf4" fill-opacity="1" r="4" /><circle cx="113.07692307692308" cy="221.77777777777777" fill="#8aadf4" fill-opacity="1" r="4" /><circle cx="166.15384615384616" cy="273.77777777777777" fill="#8aadf4" fill-opacity="1" r="4" /><circle cx="219.23076923076923" cy="250.66666666666669" fill="#8aadf4" fill-opacity="1" r="4" /><circle cx="272.3076923076923" cy="244.88888888888889" fill="#8aadf4" fill-opacity="1" r="4" /><circle cx="325.3846153846154" cy="273.77777777777777" fill="#8aadf4" fill-opacity="1" r="4" /><circle cx="378.46153846153845" cy="320.0" fill="#8aadf4" fill-opacity="1" r="4" /><circle cx="431.53846153846155" cy="311.3333333333333" fill="#8aadf4" fill-opacity="1" r="4" /><circle cx="484.61538461538464" cy="308.44444444444446" fill="#8aadf4" fill-opacity="1" r="4" /><circle cx="537.6923076923077" cy="314.22222222222223" fill="#8aadf4" fill-opacity="1" r="4" /><circle cx="590.7692307692308" cy="305.55555555555554" fill="#8aadf4" fill-opacity="1" r="4" /><circle cx="643.8461538461539" cy="320.0" fill="#8aadf4" fill-opacity="1" r="4" /><circle cx="696.9230769230769" cy="80.22222222222223" fill="#8aadf4" fill-opacity="1" r="4" /><circle cx="750.0" cy="291.1111111111111" fill="#8aadf4" fill-opacity="1" r="4" /><path d="M 60.0,233.33333333333331 C 77.6923076923077,233.33333333333331 95.38461538461539,221.77777777777777 113.07692307692308,221.77777777777777 C 130.76923076923077,221.77777777777777 148.46153846153845,273.77777777777777 166.15384615384616,273.77777777777777 C 183.84615384615384,273.77777777777777 201.53846153846155,250.66666666666669 219.23076923076923,250.66666666666669 C 236.92307692307693,250.66666666666669 254.6153846153846,244.88888888888889 272.3076923076923,244.88888888888889 C 290.0,244.88888888888889 307.69230769230774,273.77777777777777 325.3846153846154,273.77777777777777 C 343.0769230769231,273.77777777777777 360.7692307692308,320.0 378.46153846153845,320.0 C 396.15384615384613,320.0 413.84615384615387,311.3333333333333 431.53846153846155,311.3333333333333 C 449.2307692307692,311.3333333333333 466.92307692307696,308.44444444444446 484.61538461538464,308.44444444444446 C 502.3076923076923,308.44444444444446 520.0,314.22222222222223 537.6923076923077,314.22222222222223 C 555.3846153846155,314.22222222222223 573.0769230769231,305.55555555555554 590.7692307692308,305.55555555555554 C 608.4615384615386,305.55555555555554 626.1538461538462,320.0 643.8461538461539,320.0 C 661.5384615384615,320.0 679.2307692307693,80.22222222222223 696.9230769230769,80.22222222222223 C 714.6153846153846,80.22222222222223 732.3076923076923,291.1111111111111 750.0,291.1111111111111" fill="none" stroke="#8aadf4" stroke-dasharray="1115.9699790809054" stroke-dashoffset="1115.9699790809054" stroke-linecap="round" stroke-linejoin="round" stroke-opacity="0.4" stroke-width="4"><animate attributeName="stroke-dashoffset" dur="2s" fill="freeze" from="1115.9699790809054" repeatCount="1" to="0" /></path><circle cx="60.0" cy="265.1111111111111" fill="#cba6f7" fill-opacity="1" r="4" /><circle cx="113.07692307692308" cy="227.55555555555554" fill="#cba6f7" fill-opacity="1" r="4" /><circle cx="166.15384615384616" cy="253.55555555555554" fill="#cba6f7" fill-opacity="1" r="4" /><circle cx="219.23076923076923" cy="268.0" fill="#cba6f7" fill-opacity="1" r="4" /><circle cx="272.3076923076923" cy="192.88888888888889" fill="#cba6f7" fill-opacity="1" r="4" /><circle cx="325.3846153846154" cy="265.1111111111111" fill="#cba6f7" fill-opacity="1" r="4" /><circle cx="378.46153846153845" cy="285.3333333333333" fill="#cba6f7" fill-opacity="1" r="4" /><circle cx="431.53846153846155" cy="305.55555555555554" fill="#cba6f7" fill-opacity="1" r="4" /><circle cx="484.61538461538464" cy="308.44444444444446" fill="#cba6f7" fill-opacity="1" r="4" /><circle cx="537.6923076923077" cy="282.44444444444446" fill="#cba6f7" fill-opacity="1" r="4" /><circle cx="590.7692307692308" cy="308.44444444444446" fill="#cba6f7" fill-opacity="1" r="4" /><circle cx="643.8461538461539" cy="285.3333333333333" fill="#cba6f7" fill-opacity="1" r="4" /><circle cx="696.9230769230769" cy="317.1111111111111" fill="#cba6f7" fill-opacity="1" r="4" /><circle cx="750.0" cy="195.77777777777777" fill="#cba6f7" fill-opacity="1" r="4" /><path d="M 60.0,265.1111111111111 C 77.6923076923077,265.1111111111111 95.38461538461539,227.55555555555554 113.07692307692308,227.55555555555554 C 130.76923076923077,227.55555555555554 148.46153846153845,253.55555555555554 166.15384615384616,253.55555555555554 C 183.84615384615384,253.55555555555554 201.53846153846155,268.0 219.23076923076923,268.0 C 236.92307692307693,268.0 254.6153846153846,192.88888888888889 272.3076923076923,192.88888888888889 C 290.0,192.88888888888889 307.69230769230774,265.1111111111111 325.3846153846154,265.1111111111111 C 343.0769230769231,265.1111111111111 360.7692307692308,285.3333333333333 378.46153846153845,285.3333333333333 C 396.15384615384613,285.3333333333333 413.84615384615387,305.55555555555554 431.53846153846155,305.55555555555554 C 449.2307692307692,305.55555555555554 466.92307692307696,308.44444444444446 484.61538461538464,308.44444444444446 C 502.3076923076923,308.44444444444446 520.0,282.44444444444446 537.6923076923077,282.44444444444446 C 555.3846153846155,282.44444444444446 573.0769230769231,308.44444444444446 590.7692307692308,308.44444444444446 C 608.4615384615386,308.44444444444446 626.1538461538462,285.3333333333333 643.8461538461539,285.3333333333333 C 661.5384615384615,285.3333333333333 679.2307692307693,317.1111111111111 696.9230769230769,317.1111111111111 C 714.6153846153846,317.1111111111111 732.3076923076923,195.77777777777777 750.0,195.77777777777777" fill="none" stroke="#cba6f7" stroke-dasharray="915.0467312476451" stroke-dashoffset="915.0467312476451" stroke-linecap="round" stroke-linejoin="round" stroke-opacity="0.4" stroke-width="4"><animate attributeName="stroke-dashoffset" dur="2s" fill="freeze" from="915.0467312476451" repeatCount="1" to="0" /></path><text fill="#cdd6f4" fill-opacity="1" style="font-size: 12px; font-family: Arial" transform="rotate(45, 60.0, 340)" x="60.0" y="340">18</text><text fill="#cdd6f4" fill-opacity="1" style="font-size: 12px; font-family: Arial" transform="rotate(45, 113.07692307692308, 340)" x="113.07692307692308" y="340">19</text><text fill="#cdd6f4" fill-opacity="1" style="font-size: 12px; font-family: Arial" transform="rotate(45, 166.15384615384616, 340)" x="166.15384615384616" y="340">20</text><text fill="#cdd6f4" fill-opacity="1" style="font-size: 12px; font-family: Arial" transform="rotate(45, 219.23076923076923, 340)" x="219.23076923076923" y="340">21</text><text fill="#cdd6f4" fill-opacity="1" style="font-size: 12px; font-family: Arial" transform="rotate(45, 272.3076923076923, 340)" x="272.3076923076923" y="340">22</text><text fill="#cdd6f4" fill-opacity="1" style="font-size: 12px; font-family: Arial" transform="rotate(45, 325.3846153846154, 340)" x="325.3846153846154" y="340">23</text><text fill="#cdd6f4" fill-opacity="1" style="font-size: 12px; font-family: Arial" transform="rotate(45, 378.46153846153845, 340)" x="378.46153846153845" y="340">24</text><text fill="#cdd6f4" fill-opacity="1" style="font-size: 12px; font-family: Arial" transform="rotate(45, 431.53846153846155, 340)" x="431.53846153846155" y="340">25</text><text fill="#cdd6f4" fill-opacity="1" style="font-size: 12px; font-family: Arial" transform="rotate(45, 484.61538461538464, 340)" x="484.61538461538464" y="340">26</text><text fill="#cdd6f4" fill-opacity="1" style="font-size: 12px; font-family: Arial" transform="rotate(45, 537.6923076923077, 340)" x="537.6923076923077" y="340">27</text><text fill="#cdd6f4" fill-opacity="1" style="font-size: 12px; font-family: Arial" transform="rotate(45, 590.7692307692308, 340)" x="590.7692307692308" y="340">28</text><text fill="#cdd6f4" fill-opacity="1" style="font-size: 12px; font-family: Arial" transform="rotate(45, 643.8461538461539, 340)" x="643.8461538461539" y="340">29</text><text fill="#cdd6f4" fill-opacity="1" style="font-size: 12px; font-family: Arial" transform="rotate(45, 696.9230769230769, 340)" x="696.9230769230769" y="340">30</text><text fill="#cdd6f4" fill-opacity="1" style="font-size: 12px; font-family: Arial" transform="rotate(45, 750.0, 340)" x="750.0" y="340">31</text><text fill="#cdd6f4" fill-opacity="1" style="font-size: 14px; font-family: Arial" text-anchor="middle" x="400.0" y="373.3333333333333">Days</text><text fill="#cdd6f4" fill-opacity="1" style="font-size: 14px; font-family: Arial" text-anchor="middle" transform="rotate(-90, 20.0, 200.0)" x="20.0" y="200.0">Count</text><line stroke="#8aadf4" stroke-opacity="0.4" stroke-width="3" x1="340.0" x2="360.0" y1="388.3333333333333" y2="388.3333333333333" /><text fill="#cdd6f4" fill-opacity="1" style="font-size: 12px; font-family: Arial" x="370.0" y="393.3333333333333">Clones</text><line stroke="#cba6f7" stroke-opacity="0.4" stroke-width="3" x1="440.0" x2="460.0" y1="388.3333333333333" y2="388.3333333333333" /><text fill="#cdd6f4" fill-opacity="1" style="font-size: 12px; font-family: Arial" x="470.0" y="393.3333333333333">Views</text></svg>